<svg preserveAspectRatio="xMidYMid meet" data-bbox="0 0 485 81" xmlns="http://www.w3.org/2000/svg" viewBox="0 0 485 81" height="60" width="100%" data-type="ugc" role="presentation" aria-hidden="true">
    <g>
        <path fill="#E6E8F2" d="M132.487 22.262c-.428.268-.748.697-1.069 1.18-.321.482-.641 1.126-.962 1.93l-10.528 24.354c-.161.322-.374.483-.695.483h-.588c-.321 0-.588-.16-.695-.483l-10.528-24.353c-.321-.805-.641-1.449-.962-1.931a5.754 5.754 0 0 0-1.069-1.18c-.427-.269-.855-.483-1.443-.59-.534-.108-1.176-.162-1.924-.162h-5.505c-1.763 0-2.992.376-3.58 1.18-.588.805-.909 2.146-.909 4.077v29.128c0 .751.374 1.127 1.176 1.127h5.184c.748 0 1.122-.376 1.122-1.127v-26.5c0-.32.16-.482.428-.482h.481c.321 0 .534.161.641.43l10.208 22.744c.427.912.802 1.663 1.229 2.306.428.644.855 1.127 1.39 1.556.481.43 1.068.697 1.656.858a8.747 8.747 0 0 0 2.192.268h2.404c.856 0 1.55-.107 2.192-.268.641-.16 1.175-.483 1.656-.858.481-.43.962-.912 1.39-1.556.427-.643.855-1.394 1.229-2.306l10.208-22.745a.644.644 0 0 1 .641-.429h.481c.267 0 .428.161.428.483v26.5c0 .75.374 1.126 1.122 1.126h5.184c.802 0 1.176-.376 1.176-1.127V26.821c0-1.931-.321-3.272-.909-4.077-.588-.804-1.763-1.18-3.527-1.18h-5.398c-.748 0-1.389.054-1.87.161-.749.054-1.23.215-1.657.537z"></path>
        <path fill="#E6E8F2" d="M205.756 21.993c-.053.322.054.59.268.859l15.017 15.556-16.621 17.38a.995.995 0 0 0-.267.858c.054.322.321.483.748.483h6.574c.427 0 .748-.053.962-.16.214-.108.427-.269.695-.537l12.559-13.143 12.506 13.143c.213.268.427.483.641.536.214.107.534.161.962.161h6.948c.481 0 .748-.16.801-.483.054-.322-.053-.59-.267-.858l-16.247-17.112 15.552-15.77a.99.99 0 0 0 .267-.859c-.053-.322-.32-.483-.801-.483h-6.574c-.427 0-.748.054-.962.161a2.012 2.012 0 0 0-.641.537l-11.704 11.8-11.01-11.8c-.213-.215-.427-.43-.641-.537-.214-.107-.534-.16-.962-.16h-6.947c-.588-.054-.802.107-.856.428z"></path>
        <path fill="#E6E8F2" d="M254.659 21.993c-.053.322.054.59.267.859l15.018 15.556-16.621 17.38a.99.99 0 0 0-.267.858c.053.322.267.483.748.483h6.574c.427 0 .748-.054.962-.16.213-.108.427-.27.694-.537l12.506-13.25 12.506 13.142c.214.269.427.483.641.537.214.107.535.16.962.16h6.948c.481 0 .748-.16.801-.482.054-.322-.053-.59-.267-.858l-16.247-17.112 15.499-15.717a.99.99 0 0 0 .267-.859c-.053-.322-.32-.482-.801-.482h-6.574c-.428 0-.748.053-.962.16a2.012 2.012 0 0 0-.641.537l-11.704 11.801-11.01-11.801c-.214-.215-.427-.43-.641-.537-.214-.107-.534-.16-.962-.16h-6.948c-.481 0-.748.16-.748.482z"></path>
        <path fill="#E6E8F2" d="M301.581 22.637v33.312c0 .75.375 1.126 1.176 1.126h5.451c.749 0 1.123-.375 1.123-1.126V22.637c0-.751-.374-1.127-1.123-1.127h-5.451c-.801 0-1.176.376-1.176 1.127z"></path>
        <path fill="#E6E8F2" d="M314.997 23.013V55.52c0 1.02.481 1.502 1.496 1.502h23.676c2.725 0 5.077-.268 7.054-.858 1.977-.537 3.581-1.395 4.81-2.575 1.229-1.18 2.191-2.682 2.779-4.453.588-1.823.909-3.969.909-6.437v-6.92c0-2.467-.321-4.613-.909-6.437-.588-1.823-1.496-3.325-2.779-4.452-1.229-1.18-2.833-2.038-4.81-2.575-1.977-.536-4.275-.858-7.054-.858h-23.676c-1.015.054-1.496.59-1.496 1.556zm7.696 6.276c0-.483.213-.698.641-.698h16.621c1.496 0 2.725.161 3.741.43 1.015.268 1.817.697 2.458 1.34.642.59 1.069 1.449 1.336 2.415.268 1.019.428 2.253.428 3.755v5.578c0 1.502-.16 2.736-.428 3.755-.267 1.02-.694 1.824-1.336 2.414a5.735 5.735 0 0 1-2.458 1.341c-1.016.269-2.245.43-3.741.43h-16.621c-.428 0-.641-.215-.641-.644V29.289z"></path>
        <path fill="#E6E8F2" d="m167.599 25.373-16.621 30.522c-.16.322-.213.644-.106.859.106.214.32.321.801.321h6.574c.534 0 .855-.214 1.122-.59l1.39-2.575 2.137-4.023 3.848-7.188 7.215-13.571c.16-.215.321-.376.535-.376h.32c.214 0 .428.108.535.376l7.909 14.59h-10.849c-.427 0-1.015.376-1.229.805l-2.405 4.56c-.214.429-.053.804.374.804h17.476l3.581 6.545c.214.429.588.643 1.176.643h6.413c.427 0 .641-.107.748-.321.107-.215.054-.483-.107-.859l-16.728-30.522c-.855-1.502-1.71-2.521-2.565-3.058-.855-.536-1.977-.805-3.26-.805h-2.993c-1.069 0-2.031.269-2.832.805-.802.537-1.604 1.556-2.459 3.058z"></path>
        <path fill="#E6E8F2" d="M399.971 22.637v4.989c0 .804.374 1.18 1.175 1.18h15.873v27.143c0 .75.374 1.126 1.122 1.126h5.505c.748 0 1.122-.375 1.122-1.126V28.806h15.873c.748 0 1.176-.376 1.176-1.18v-4.989c0-.751-.374-1.127-1.176-1.127H401.2c-.802 0-1.229.376-1.229 1.127z"></path>
        <path fill="#E6E8F2" d="m373.57 25.373-16.621 30.522c-.161.322-.214.644-.107.859.107.214.32.321.801.321h6.574c.534 0 .855-.214 1.122-.59l1.39-2.575 2.138-4.023 3.847-7.188 7.215-13.571c.161-.215.321-.376.535-.376h.32c.214 0 .428.108.535.376l7.909 14.59h-10.849c-.427 0-1.015.376-1.229.805l-2.405 4.56c-.214.429-.053.804.374.804h17.53l3.581 6.545c.213.429.587.643 1.175.643h6.413c.428 0 .642-.107.749-.321.107-.215.053-.483-.107-.859l-16.728-30.522c-.855-1.502-1.71-2.521-2.565-3.058-.855-.536-1.978-.805-3.26-.805h-2.993c-1.069 0-2.031.269-2.833.805-.855.537-1.656 1.556-2.511 3.058z"></path>
        <path fill="#E6E8F2" d="m453.894 25.373-16.621 30.522c-.161.322-.214.644-.107.859.107.214.321.321.802.321h6.573c.535 0 .855-.214 1.122-.59l1.39-2.575 2.138-4.023 3.848-7.188 7.268-13.571c.16-.215.321-.376.534-.376h.321c.214 0 .428.108.534.376l7.91 14.59h-10.849c-.427 0-1.015.376-1.229.805l-2.352 4.56c-.213.429-.053.804.374.804h17.476l3.581 6.545c.214.429.588.643 1.176.643h6.413c.428 0 .641-.107.748-.321.107-.215.054-.483-.107-.859L468.11 25.373c-.855-1.502-1.711-2.521-2.566-3.058-.855-.536-1.977-.805-3.26-.805h-2.992c-1.069 0-2.031.269-2.833.805-.855.537-1.71 1.556-2.565 3.058z"></path>
        <path fill="url(#svgcid-2igy8v8zi9g0)" d="M80.7 40.5C80.7 18.131 62.636 0 40.35 0S0 18.131 0 40.5 18.064 81 40.35 81 80.7 62.869 80.7 40.5zm-8.284 11.909v-3.434c0-.16 0-.268-.054-.429 0-.107 0-.214-.053-.322 0-.16-.053-.268-.053-.429 0-.107-.054-.214-.054-.322 0-.16-.053-.321-.053-.482 0-.108-.054-.161-.054-.269-.053-.16-.053-.321-.107-.536 0-.053 0-.107-.053-.215-.054-.214-.054-.375-.107-.59v-.053c-.32-1.502-.748-3.004-1.336-4.453v-.053c-.107-.215-.214-.483-.32-.698v-.053c-.108-.215-.215-.483-.322-.697v-.054c-.106-.215-.213-.483-.374-.697a21.834 21.834 0 0 0-6.573-7.671c-.641-.483-1.336-.966-2.084-1.341-2.566-1.449-5.719-2.414-6.146-1.61-.321.644 1.977 1.127 5.023 4.72 2.672 3.273 4.33 7.564 4.864 12.178 2.244 20.33-20.897 37.55-43.236 27.41-1.283-.535-2.459-1.18-3.688-1.93-.694-.376-1.87-1.234-1.87-1.395.053-.215.534.107 1.603.59.374.161.748.376 1.23.59.213.108.48.215.747.322 1.871.751 4.543 1.556 8.017 1.985a28.99 28.99 0 0 0 2.245.107c.534 0 1.015 0 1.55-.053.534-.054 1.068-.054 1.603-.161.534-.054 1.069-.161 1.603-.215l1.603-.322c1.07-.268 2.192-.59 3.26-1.019.802-.322 1.604-.644 2.405-1.073a22.255 22.255 0 0 0 1.55-.858c.481-.322 1.016-.644 1.497-.966 2.458-1.77 4.65-4.077 6.306-7.027.107-.215.267-.429.374-.644 0-.053.054-.107.054-.16.107-.215.213-.43.32-.698.107-.215.214-.483.32-.697 0-.054.054-.054.054-.108.107-.214.16-.482.267-.697.535-1.556.749-2.897.268-3.165-.642-.322-1.123 1.985-4.703 5.043-1.604 1.34-3.528 2.413-5.558 3.272a28.294 28.294 0 0 1-4.864 1.394c-.588.108-1.122.215-1.71.269-5.825.643-11.383-.805-16.086-3.755a27.943 27.943 0 0 1-5.078-4.023 31.475 31.475 0 0 1-1.763-1.932v-.053a34.62 34.62 0 0 1-2.352-3.165l-.053-.054a15.379 15.379 0 0 1-1.283-2.253c0-.053-.053-.107-.053-.107a98.722 98.722 0 0 1-1.122-2.36c0-.054-.054-.108-.054-.161-.16-.376-.32-.751-.427-1.127 0-.053-.054-.053-.054-.107-.16-.43-.267-.805-.427-1.234 0-.053 0-.053-.054-.107l-.32-1.127c0-.053-.054-.16-.054-.214-.214-.805-.428-1.663-.534-2.521 0-.108-.054-.161-.054-.269-.053-.375-.107-.804-.16-1.18v-.107l-.16-1.287v-.268c-.054-.376-.054-.698-.054-1.073v-1.771c0-.375 0-.75.053-1.126v-.322c0-.43.054-.858.107-1.341v-.054l.16-1.287c0-.107.054-.215.054-.375.054-.376.107-.752.214-1.127 0-.054 0-.161.053-.215.107-.429.16-.858.268-1.34 0-.108.053-.215.106-.323.107-.375.16-.697.268-1.072.053-.108.053-.215.107-.322.106-.43.267-.858.427-1.341.054-.108.054-.161.107-.269.107-.375.267-.75.428-1.126.053-.107.106-.268.16-.375.16-.43.374-.912.588-1.341.534-1.288 1.175-2.468 1.924-3.702.374-.697 1.229-1.877 1.39-1.877.053 0 .053 0 .053.053v.161c-.054.107-.107.268-.214.537a16.7 16.7 0 0 0-.428.912c-.107.16-.16.375-.267.59-.214.429-.374.912-.588 1.448-1.015 1.985-1.817 4.56-2.244 7.885 0 .108 0 .161-.054.269-.748 7.724 2.085 18.238 11.544 23.71 2.565 1.448 5.718 2.413 6.146 1.609.32-.644-1.978-1.127-5.024-4.72-2.672-3.273-4.329-7.564-4.863-12.178C13.895 15.45 37.036-1.77 59.376 8.37c1.282.536 2.458 1.18 3.687 1.93.107.054.214.108.32.215l.054.054c.107.053.214.16.374.214.268.215.535.376.749.537.213.16.32.268.32.321-.053.269-.962-.375-2.886-1.18-.962-.429-2.137-.858-3.634-1.287-1.443-.43-3.153-.751-5.13-1.02-7.696-.75-18.171 2.093-23.622 11.587-1.443 2.575-2.405 5.74-1.604 6.17.428.267.802-.859 2.245-2.63.053-.053.107-.16.16-.214a.714.714 0 0 0 .16-.214c.108-.108.161-.215.268-.322.053-.054.107-.108.107-.161.16-.161.267-.322.427-.43.054-.053.107-.107.16-.107l.375-.375.16-.161c.16-.16.374-.322.588-.483 3.26-2.682 7.535-4.345 12.132-4.881.374-.054.748-.054 1.122-.107h.32c.268 0 .535 0 .802-.054h1.443c.374 0 .748.053 1.069.053h.16c.321.054.588.054.909.108.107 0 .214 0 .267.053.267.054.588.108.855.108.054 0 .16 0 .214.053.748.161 1.443.322 2.138.483.053 0 .107 0 .107.054.32.107.64.16.962.268.053 0 .106.054.16.054 1.069.375 2.138.804 3.153 1.287h.053c.321.161.695.322 1.016.536 11.65 6.33 18.919 21.404 13.949 36.853v.053a8.543 8.543 0 0 1-.374 1.073c0 .054-.054.108-.054.161-.107.322-.267.644-.374.966-.053.053-.053.16-.107.214l-.48 1.127a20.306 20.306 0 0 1-.91 1.877c-.32.59-.64 1.234-1.015 1.824-.267.43-.641 1.073-.962 1.448a2.32 2.32 0 0 1-.32.376c-.054.054-.054.054-.107.054-.535-.054 2.511-3.755 3.474-11.694 0-.215.053-.483.053-.698.107.107.107.054.107-.053z"></path>
        <defs fill="none">
            <linearGradient gradientUnits="userSpaceOnUse" y2="80.94" x2="-.002" y1="0" x1="80.624" id="svgcid-2igy8v8zi9g0">
                <stop stop-color="#FFB726"></stop>
                <stop stop-color="#FF7559" offset="1"></stop>
            </linearGradient>
        </defs>
    </g>
</svg>